<?xml version="1.0" standalone="no"?>
<!DOCTYPE svg PUBLIC "-//W3C//DTD SVG 20010904//EN"
 "http://www.w3.org/TR/2001/REC-SVG-20010904/DTD/svg10.dtd">
<svg version="1.0" xmlns="http://www.w3.org/2000/svg"
 width="260.000000pt" height="260.000000pt" viewBox="0 0 260.000000 260.000000"
 preserveAspectRatio="xMidYMid meet">
<metadata>
Created by potrace 1.11, written by Peter Selinger 2001-2013
</metadata>
<g transform="translate(0.000000,260.000000) scale(0.100000,-0.100000)"
fill="#000000" stroke="none">
<path d="M0 1300 l0 -1300 1300 0 1300 0 0 1300 0 1300 -1300 0 -1300 0 0
-1300z m970 553 c12 -32 75 -202 140 -378 65 -176 146 -393 179 -483 34 -89
61 -165 61 -168 0 -2 -64 -3 -142 -2 l-141 3 -32 95 -32 95 -220 3 -221 2 -16
-42 c-9 -24 -24 -68 -35 -98 l-18 -55 -141 -3 c-78 -1 -142 0 -142 2 0 3 36
103 81 223 44 120 127 344 184 498 57 155 111 300 120 323 l17 42 168 0 169 0
21 -57z m1204 29 c75 -28 121 -63 145 -111 42 -82 44 -205 4 -274 -11 -18 -39
-46 -65 -63 l-46 -31 33 -12 c36 -13 92 -61 117 -101 39 -64 46 -207 14 -285
-20 -48 -78 -107 -128 -133 -87 -43 -169 -52 -469 -52 l-279 0 0 546 0 546
308 -4 c286 -4 311 -6 366 -26z"/>
<path d="M708 1447 c-36 -105 -69 -200 -73 -209 -7 -17 4 -18 137 -18 80 0
147 2 150 5 6 6 -134 415 -142 415 -3 0 -35 -87 -72 -193z"/>
<path d="M1780 1605 l0 -115 96 0 c139 0 194 31 194 110 -1 89 -50 120 -192
120 l-98 0 0 -115z"/>
<path d="M1780 1155 l0 -147 118 4 c67 3 129 11 145 18 42 20 71 75 70 132 -1
100 -48 130 -215 136 l-118 4 0 -147z"/>
</g>
</svg>
